<svg width="588" height="24" viewBox="0 0 588 24" fill="none" xmlns="http://www.w3.org/2000/svg">
<path d="M69.8255 11.4272C70.8838 11.4649 71.9616 11.4938 73.02 11.5315C73.0398 11.5042 73.0401 11.4858 73.0599 11.4586C70.4446 11.2636 67.8488 11.0597 65.2335 10.8647C65.3129 10.7372 65.373 10.6094 65.4525 10.4728C67.7993 10.6077 70.1827 10.8445 72.4936 10.8314C73.9958 10.822 75.4082 10.4519 76.8943 10.2673C77.4541 10.1946 78.2264 10.0798 78.6872 10.1527C85.9657 11.2245 93.5557 11.05 101.083 11.1229C105.781 11.1626 110.497 11.2578 115.383 11.5495C113.918 11.624 112.434 11.7074 110.969 11.782C110.968 11.8648 110.947 11.9565 110.945 12.0393C119.405 12.7184 127.866 13.3975 136.191 14.065C136.46 14.1343 136.879 14.3445 137.322 14.3618C140.324 14.4626 143.327 14.5082 146.33 14.5906C152.007 14.7494 157.665 14.9355 163.343 15.0575C165.499 15.106 167.677 14.9801 169.853 15.0013C172.51 15.0222 175.184 15.1262 177.841 15.1563C200.309 15.3637 222.758 15.5615 245.611 15.7667C245.316 16.1296 245.197 16.2839 244.961 16.565C246.04 16.5479 247.367 16.6457 247.87 16.4892C250.349 15.6967 252.689 16.2181 255.109 16.566C255.512 16.6286 255.991 16.7755 256.3 16.7535C259.192 16.53 262.046 16.2783 264.92 16.0361C264.884 15.9066 264.848 15.7863 264.811 15.6567C259.712 15.4716 254.632 15.2777 249.532 15.111C243.951 14.9263 238.29 14.9059 232.77 14.575C212.689 13.3708 192.502 13.7206 172.371 13.1508C165.5 12.9518 158.586 13.019 151.712 12.9764C150.461 12.972 149.151 12.9849 147.974 13.0923C145.621 13.3072 143.777 13.071 141.511 12.7259C138.688 12.2969 135.281 12.2623 132.106 12.1308C129.874 12.0348 127.621 12.0489 125.333 11.8139C127.287 11.3432 129.443 11.3641 131.692 11.5893C132.941 11.7133 134.15 11.9839 135.382 11.9972C149.474 12.1623 163.549 12.2073 177.641 12.4368C217.469 13.0898 257.296 13.8625 297.144 14.479C324.403 14.9027 351.665 15.1515 378.926 15.4832C379.715 15.4884 380.524 15.4847 381.317 15.2966C338.888 14.6514 296.46 14.0154 254.031 13.3702C254.034 13.2414 254.036 13.1125 254.038 12.9837C296.178 13.6052 338.357 14.2459 380.515 14.8862C380.691 14.7513 380.848 14.616 381.024 14.4811C380.697 14.4568 380.39 14.4051 380.062 14.4084C372.554 14.299 365.066 14.19 357.558 14.0714C350.435 13.9599 343.313 13.8484 336.19 13.7368C321.906 13.5038 307.642 13.2804 293.358 13.0382C253.048 12.3672 212.719 11.6867 172.409 11.0433C170.484 11.0081 168.572 11.3139 166.607 11.3517C162.196 11.4461 157.745 11.5859 153.318 11.4867C146.889 11.3418 140.444 11.0769 134.057 10.7394C124.726 10.2562 115.495 9.61822 105.997 9.91444C102.085 10.0364 97.9716 9.64834 93.9301 9.52857C83.9417 9.22666 73.9561 8.77749 63.9828 8.706C47.5014 8.60784 31.1073 9.00841 14.8057 9.6132C10.3354 9.771 5.82865 9.81767 0.877986 9.92067C1.40276 9.65406 1.61887 9.41864 1.96587 9.39735C5.89799 9.1837 9.84869 9.00721 13.7803 8.82117C14.6475 8.78175 15.496 8.71438 16.3824 8.68452C17.5578 8.64152 18.7522 8.60807 19.9464 8.59303C20.7167 8.58868 21.524 8.66785 22.2752 8.65394C28.4981 8.48208 34.7401 8.31057 40.9442 8.11075C47.8612 7.88711 54.7596 7.62631 61.6767 7.39347C62.5823 7.36396 63.6041 7.29974 64.4109 7.40653C70.7898 8.17655 77.3743 8.23224 83.9582 8.32474C84.4202 8.33317 84.8827 8.31399 85.4218 8.31462C82.6263 7.44426 78.2728 8.58927 75.2949 7.1632C79.2605 7.22635 82.6302 7.23259 85.9982 7.33086C96.4487 7.63201 106.879 7.97881 117.31 8.27961C121.025 8.3842 124.797 8.50826 128.495 8.46525C132.443 8.4176 136.301 8.0737 140.248 8.05367C148.202 8.00545 156.173 8.06802 164.144 8.12139C171.556 8.17377 178.949 8.24421 186.361 8.37022C190.942 8.44461 195.54 8.685 200.121 8.76858C204.741 8.85287 209.345 8.79876 213.965 8.85544C219.317 8.92547 224.686 9.08788 230.038 9.16711C237.007 9.25743 243.996 9.28368 250.966 9.3648C258.224 9.45119 265.5 9.58395 272.757 9.69794C277.243 9.76137 281.71 9.79683 286.194 9.89707C293.22 10.0529 300.244 10.2823 307.251 10.4009C310.678 10.4634 314.108 10.3051 317.554 10.3495C320.865 10.3915 324.192 10.664 327.503 10.6876C343.984 10.8225 360.466 10.9023 376.947 11.0189C388.922 11.1085 400.934 11.3368 412.892 11.3248C439.639 11.2881 466.369 11.1497 493.098 11.039C504.383 10.9963 515.669 10.8984 526.973 10.8745C528.821 10.8714 530.703 11.1543 532.589 11.2347C533.82 11.2848 535.226 11.3013 536.326 11.1648C541.556 10.5053 546.791 10.6837 551.607 11.5817C556.904 12.5622 562.438 12.1384 567.845 12.3935C574.232 12.7034 580.64 12.9584 587.047 13.2502C587.277 13.2636 587.448 13.3956 587.965 13.5984C577.578 13.9889 567.246 12.5023 556.229 13.6914C558.472 14.2111 560.102 14.5907 561.655 14.9504C558.792 15.7175 555.28 15.055 551.838 14.7529C551.74 14.88 551.641 15.0071 551.523 15.1338C553.347 15.4249 555.191 15.7071 557.495 16.0713C554.86 16.9347 551.441 16.4948 547.613 16.2501C548.677 17.0428 549.857 17.81 546.519 18.1542C542.121 18.6079 539.794 18.4274 537.407 17.3343C535.994 16.6917 531.533 16.3618 530.328 16.9566C527.102 18.5457 521.774 18.2275 517.091 18.4459C511.618 18.7051 506.087 18.9356 500.54 19.0277C494.299 19.1256 488.023 19.0479 481.764 19.0626C478.452 19.0666 475.14 19.0982 471.827 19.1115C470.383 19.1127 468.939 19.1048 467.495 19.1061C466.378 19.1041 465.051 18.997 464.144 19.137C459.722 19.8112 455.373 19.6582 450.545 19.34C444.641 18.9561 438.407 18.649 432.728 19.6409C431.878 19.7911 430.741 19.8348 429.74 19.8074C422.369 19.6084 415.018 19.327 407.646 19.1925C403.43 19.1156 399.191 19.2592 394.973 19.3204C393.162 19.3426 391.35 19.4568 389.521 19.4418C382.764 19.3646 376.026 19.2785 369.27 19.1276C357.778 18.8811 346.288 18.561 334.816 18.3333C330.774 18.2503 326.727 18.3974 322.685 18.3237C318.45 18.2556 314.198 18.0308 309.964 17.9075C307.308 17.8314 304.651 17.8013 301.994 17.7989C297.527 17.7818 293.078 17.848 288.631 17.776C284.762 17.7146 280.896 17.4508 277.027 17.3618C274.583 17.308 272.115 17.4655 269.651 17.439C266.628 17.4022 263.608 17.255 260.566 17.1996C254.637 17.0914 248.707 17.0476 242.779 16.9119C234.714 16.7279 226.651 16.4703 218.586 16.2587C216.392 16.2003 214.177 16.2243 212.003 16.111C210.81 16.0524 209.279 15.5457 208.603 15.6531C205.127 16.2065 201.728 15.6934 198.282 15.6397C195.741 15.5934 193.196 15.8139 190.654 15.8043C183.665 15.7781 176.657 15.7055 169.668 15.6148C166.434 15.5742 163.221 15.4235 159.988 15.3461C149.844 15.1242 139.7 14.9115 129.406 14.4659C129.986 14.3384 130.547 14.2106 131.745 13.947C126.164 13.7716 121.159 13.6986 116.196 13.4332C113.503 13.292 110.991 12.7122 108.298 12.5158C104.549 12.2356 101.273 11.2644 96.8927 11.7921C94.6156 12.0636 91.6551 11.7886 89.0168 11.8049C84.4719 11.8325 79.9454 11.9064 75.4003 11.9432C73.5322 11.9551 71.627 11.8927 69.7404 11.8675C69.7434 11.7019 69.7844 11.5645 69.8255 11.4272ZM368.12 17.7625C364.146 17.1192 308.262 16.2009 304.805 16.8007C326.307 17.1285 346.867 17.4392 368.12 17.7625ZM410.315 15.347C410.333 15.4394 410.331 15.5314 410.349 15.6238C428.256 15.6651 446.144 15.7061 464.052 15.7474C464.035 15.609 464.018 15.4798 464.001 15.3414C446.093 15.3369 428.204 15.3419 410.315 15.347ZM535.135 15.1939C535.08 15.0456 535.045 14.8884 534.99 14.7401C529.461 14.851 523.913 14.9615 518.385 15.0816C518.421 15.1927 518.458 15.3039 518.494 15.415C524.041 15.3321 529.588 15.2676 535.135 15.1939Z" fill="#F1AD07"/>
</svg>
