<svg width="187" height="11" viewBox="0 0 187 11" fill="none" xmlns="http://www.w3.org/2000/svg">
<path d="M21.8839 6.02958C22.2193 6.04635 22.5609 6.05791 22.8964 6.07468C22.9028 6.05882 22.903 6.04818 22.9094 6.03232C22.081 5.93202 21.2588 5.82651 20.4304 5.7262C20.4562 5.65213 20.4759 5.57795 20.5017 5.49856C21.2453 5.56537 21.9999 5.69095 22.7328 5.67237C23.2092 5.65977 23.6588 5.43903 24.1309 5.32518C24.3088 5.28051 24.5542 5.21044 24.7 5.25037C27.0029 5.83547 29.4106 5.69837 31.7973 5.70465C33.2868 5.7052 34.7818 5.7378 36.3297 5.88317C35.8648 5.93326 35.3938 5.98856 34.9289 6.03864C34.928 6.08655 34.921 6.13966 34.9201 6.18756C37.5996 6.53994 40.2791 6.89231 42.916 7.23858C43.0008 7.2774 43.1329 7.39694 43.2732 7.40482C44.2247 7.44881 45.1767 7.46085 46.1284 7.49419C47.9281 7.55897 49.7213 7.6396 51.5213 7.68309C52.2047 7.70089 52.896 7.61766 53.5858 7.6196C54.4282 7.61899 55.2758 7.66641 56.1182 7.67112C63.2418 7.68396 70.3595 7.69136 77.6053 7.7011C77.5099 7.91233 77.4716 8.00215 77.3954 8.16581C77.7375 8.15075 78.1578 8.20102 78.3182 8.10811C79.1081 7.63801 79.8476 7.92836 80.6133 8.11803C80.7408 8.15231 80.892 8.23493 80.9899 8.22074C81.9082 8.07777 82.8145 7.9186 83.7269 7.76487C83.716 7.69013 83.7051 7.62072 83.6943 7.54598C82.0781 7.46325 80.4681 7.37531 78.8517 7.30322C77.0829 7.22303 75.2879 7.2382 73.539 7.07318C67.1769 6.4726 60.774 6.77107 54.393 6.53752C52.2152 6.45519 50.0224 6.52699 47.843 6.53515C47.4461 6.53856 47.0308 6.55228 46.6572 6.62C45.9099 6.75545 45.3262 6.62766 44.6094 6.43888C43.7163 6.20429 42.6359 6.20055 41.6297 6.1396C40.9224 6.09475 40.2079 6.11366 39.4837 5.98864C40.1054 5.70714 40.7891 5.70897 41.5011 5.82845C41.8967 5.89423 42.2785 6.04495 42.6692 6.04676C47.1371 6.07503 51.6002 6.034 56.0675 6.09953C68.6942 6.28731 81.3196 6.54428 93.9527 6.71088C102.595 6.82595 111.238 6.83989 119.881 6.90174C120.131 6.90099 120.388 6.89502 120.64 6.78249C107.189 6.61161 93.7378 6.44606 80.2867 6.27519C80.2881 6.20068 80.2895 6.12616 80.2908 6.05165C93.6506 6.2102 107.022 6.37963 120.388 6.54894C120.444 6.47011 120.495 6.39116 120.551 6.31232C120.447 6.29978 120.35 6.27139 120.246 6.27482C117.866 6.24737 115.492 6.22002 113.112 6.18725C110.854 6.1567 108.596 6.12615 106.338 6.0956C101.809 6.02895 97.2871 5.96774 92.7589 5.89577C79.9798 5.69989 67.1947 5.49857 54.4152 5.31866C53.805 5.30753 53.1973 5.49344 52.574 5.52466C51.1747 5.60029 49.7627 5.70231 48.3594 5.66606C46.3215 5.61291 44.2787 5.49045 42.255 5.32574C39.2987 5.09078 36.3745 4.76589 33.361 4.98245C32.1202 5.07162 30.8176 4.86683 29.5366 4.81683C26.3707 4.68986 23.2063 4.47772 20.0441 4.48392C14.8183 4.50571 9.61776 4.81547 4.4456 5.24289C3.02732 5.35544 1.59799 5.40391 0.0276313 5.48707C0.19531 5.3304 0.264961 5.19324 0.375096 5.17927C1.623 5.03699 2.87662 4.9161 4.12423 4.78978C4.39942 4.76286 4.6688 4.71985 4.95 4.69836C5.32292 4.6679 5.70186 4.64287 6.08059 4.62848C6.32489 4.62229 6.58051 4.66422 6.81879 4.6526C8.79288 4.52356 10.7731 4.39463 12.7414 4.24952C14.9358 4.08723 17.1246 3.90355 19.3191 3.73594C19.6064 3.71456 19.9307 3.67256 20.186 3.73046C22.2052 4.14532 24.2929 4.14614 26.3802 4.16825C26.5266 4.17092 26.6734 4.15763 26.8443 4.15542C25.962 3.66546 24.5761 4.34831 23.6386 3.53788C24.8958 3.55549 25.9643 3.54304 27.0318 3.58382C30.3443 3.70814 33.6501 3.85897 36.9565 3.98319C38.1338 4.02596 39.3293 4.07972 40.5022 4.03723C41.7544 3.99086 42.9793 3.77361 44.2312 3.74321C46.7536 3.67742 49.2808 3.67561 51.8082 3.66848C54.1585 3.66344 56.5025 3.66894 58.8521 3.70648C60.3045 3.72766 61.7614 3.84475 63.2137 3.87125C64.6783 3.89797 66.1382 3.84474 67.6031 3.85549C69.2999 3.87048 71.0018 3.9388 72.6984 3.95911C74.9079 3.97812 77.1241 3.95999 79.3337 3.97368C81.6348 3.98904 83.9415 4.03113 86.2423 4.06246C87.6644 4.07775 89.0806 4.07697 90.5023 4.11356C92.7294 4.17016 94.9557 4.26935 97.1771 4.30455C98.2633 4.32437 99.3519 4.21645 100.444 4.22573C101.494 4.23424 102.548 4.37592 103.598 4.37378C108.823 4.37328 114.049 4.34084 119.275 4.32969C123.072 4.32443 126.88 4.39923 130.672 4.3353C139.153 4.18657 147.63 3.97917 156.107 3.78774C159.685 3.70928 163.264 3.59888 166.849 3.53117C167.435 3.52057 168.031 3.67519 168.628 3.71271C169.018 3.73581 169.464 3.73861 169.814 3.65447C171.475 3.2482 173.134 3.32639 174.657 3.82271C176.332 4.36441 178.089 4.09298 179.802 4.21474C181.826 4.36348 183.857 4.4804 185.887 4.6186C185.96 4.62526 186.014 4.70078 186.177 4.81555C182.881 5.09086 179.612 4.28049 176.113 5.02061C176.822 5.31041 177.337 5.52213 177.828 5.72276C176.916 6.17999 175.805 5.81365 174.716 5.65533C174.684 5.72929 174.652 5.80325 174.614 5.8771C175.191 6.03671 175.774 6.1911 176.503 6.39075C175.663 6.90254 174.581 6.6645 173.369 6.54122C173.702 6.99454 174.073 7.43257 173.013 7.6475C171.616 7.93082 170.879 7.83751 170.127 7.21683C169.682 6.85198 168.269 6.68244 167.884 7.03215C166.854 7.9664 165.166 7.80782 163.679 7.9564C161.943 8.13236 160.188 8.29202 158.428 8.37173C156.449 8.45807 154.459 8.44307 152.474 8.4814C151.424 8.49951 150.373 8.53358 149.323 8.55701C148.865 8.56463 148.407 8.56692 147.949 8.57454C147.595 8.57873 147.175 8.52314 146.886 8.60839C145.481 9.01934 144.103 8.9516 142.573 8.79059C140.703 8.59674 138.728 8.44889 136.922 9.04954C136.652 9.14044 136.291 9.17113 135.974 9.16002C133.637 9.08012 131.308 8.95243 128.97 8.90979C127.634 8.8854 126.289 8.98865 124.951 9.04411C124.377 9.06558 123.802 9.14027 123.222 9.14034C121.08 9.12787 118.943 9.11019 116.802 9.05515C113.159 8.96739 109.517 8.83705 105.88 8.76005C104.599 8.73134 103.315 8.8357 102.033 8.81232C100.691 8.79315 99.3436 8.68338 98.0016 8.63228C97.1597 8.60095 96.3174 8.59623 95.4748 8.60747C94.0583 8.6189 92.6471 8.67834 91.2374 8.65795C90.0107 8.64089 88.7861 8.50674 87.5598 8.47371C86.7848 8.45425 86.0016 8.5571 85.2203 8.55349C84.262 8.54666 83.3049 8.47595 82.3407 8.45836C80.4612 8.42407 78.581 8.42703 76.7017 8.37677C74.1452 8.30883 71.5894 8.19831 69.0332 8.1144C68.3377 8.09107 67.6353 8.11552 66.9465 8.06036C66.5685 8.03217 66.0854 7.74649 65.8705 7.81178C64.7656 8.14835 63.6902 7.86784 62.5978 7.85324C61.7923 7.83854 60.9839 7.9782 60.178 7.98479C57.9618 8.00292 55.7399 7.99433 53.5243 7.9752C52.4989 7.96714 51.4808 7.89533 50.4558 7.86598C47.2402 7.78601 44.0245 7.71137 40.7625 7.50277C40.947 7.42627 41.1254 7.34967 41.5068 7.19157C39.7379 7.1167 38.151 7.0984 36.5785 6.96855C35.7251 6.89973 34.9313 6.57644 34.0785 6.47569C32.8908 6.33157 31.8569 5.7856 30.4652 6.11161C29.7418 6.27944 28.8044 6.13455 27.9677 6.15656C26.5263 6.19415 25.0906 6.25847 23.6492 6.30139C23.0568 6.3172 22.4529 6.29021 21.8548 6.28462C21.8565 6.18882 21.8702 6.1092 21.8839 6.02958ZM116.444 8.27127C115.186 7.91822 97.47 7.65356 96.3707 8.01685C103.188 8.10396 109.706 8.18561 116.444 8.27127ZM129.835 6.67339C129.841 6.72672 129.84 6.77995 129.845 6.83329C135.523 6.77183 141.195 6.71027 146.873 6.64881C146.869 6.56886 146.864 6.49424 146.859 6.41429C141.181 6.49703 135.508 6.58521 129.835 6.67339ZM169.417 5.98993C169.4 5.90444 169.39 5.81373 169.373 5.72824C167.619 5.8187 165.859 5.90905 164.106 6.00484C164.117 6.06893 164.128 6.13303 164.139 6.19712C165.898 6.12273 167.658 6.05899 169.417 5.98993Z" fill="#ED1C24"/>
</svg>
