<svg width="152" height="208" viewBox="0 0 152 208" fill="none" xmlns="http://www.w3.org/2000/svg">
<path d="M75.3339 204.981C34.9812 204.981 2.26953 171.345 2.26953 129.852V78.1476C2.26953 36.6546 34.9812 3.01855 75.3339 3.01855C115.687 3.01855 148.398 36.6546 148.398 78.1476V129.852C148.398 171.345 115.687 204.981 75.3339 204.981Z" stroke="#FDB73B" stroke-width="1.5" stroke-miterlimit="10"/>
<path d="M75.5022 182.402C46.3302 182.402 22.6855 158.089 22.6855 128.093V76.1037C22.6855 46.1072 46.3302 21.7944 75.5022 21.7944C104.674 21.7944 128.319 46.1072 128.319 76.1037V128.093C128.319 158.081 104.674 182.402 75.5022 182.402Z" stroke="#FDB73B" stroke-width="1.5" stroke-miterlimit="10"/>
<path d="M22.6855 78.3115H128.319" stroke="#FDB73B" stroke-width="1.5" stroke-miterlimit="10"/>
</svg>
