<svg width="101" height="33" viewBox="0 0 101 33" fill="none" xmlns="http://www.w3.org/2000/svg">
<path d="M22.9041 21.1306L21.7868 32.3349H0V31.9836C2.95172 31.849 3.533 31.2286 3.533 28.0445V5.17994C3.533 2.74325 2.95172 1.81641 0 1.68187V1.33057H21.115L22.0963 10.8083H21.7415C20.1336 4.07371 18.8351 1.95095 12.8864 1.95095H6.5753V16.1226H11.0519C14.7661 16.1226 16.0646 14.6576 16.7817 9.96364H17.1366V22.9469H16.7817C16.0646 18.2529 14.7661 16.743 11.0519 16.743H6.5753V31.7145H12.7505C19.8165 31.7145 21.2961 29.2778 22.5493 21.1306H22.9041Z" fill="black"/>
<path d="M35.1112 31.9835V32.3348H25.3652V31.9835C28.098 31.8041 28.8982 31.5873 28.8982 29.8532V4.43239C28.8982 1.64439 28.2264 1.46501 25.3652 1.906V1.54723L31.5782 0V29.8532C31.5782 31.5798 32.3859 31.8041 35.1112 31.9835Z" fill="black"/>
<path d="M58.6719 31.9832V32.3345H52.4514V28.5225C51.4247 30.9592 48.7825 32.9997 45.6496 32.9997C41.3088 32.9997 38.8025 30.4285 38.8025 25.6V14.2163C38.8025 11.4283 38.1307 11.2489 35.2695 11.6899V11.3386L41.49 10.1875V24.8077C41.49 29.1952 43.5962 31.6767 47.0839 31.5871C49.4091 31.4974 51.47 30.0847 52.4514 27.9096V14.2163C52.4514 11.4283 51.7795 11.2489 48.9184 11.6899V11.3386L55.1389 10.1875V28.9261C55.1389 31.1834 56.075 31.8935 58.6719 31.9832Z" fill="black"/>
<path d="M81.9078 31.9386V32.2899H75.6873V28.7022C74.8796 30.7352 72.4186 33 68.9309 33C64.0088 33 59.8945 29.0609 59.8945 22.2367C59.8945 14.2165 65.043 9.97101 70.7653 9.97101C72.5997 9.97101 74.2077 10.4569 75.6873 11.2566V3.98392C75.6873 1.68177 74.8343 1.41268 71.0371 2.16761V1.81631L78.3748 0V28.8815C78.3748 31.1388 79.3109 31.8489 81.9078 31.9386ZM75.6873 27.9921V14.7472C75.1513 12.6693 73.181 10.5391 70.0934 10.5391C65.7527 10.5391 62.801 14.1717 62.801 21.4369C62.801 27.5511 66.0244 31.4004 70.4482 31.4004C72.9168 31.4079 74.7965 30.2494 75.6873 27.9921Z" fill="black"/>
<path d="M100.999 24.6732C100.056 30.167 97.1946 32.9998 92.6802 32.9998C87.2675 32.9998 83.2891 29.143 83.2891 21.8329C83.2891 14.9265 86.5125 9.96338 92.8614 9.96338C98.2741 9.96338 100.826 14.1715 100.554 19.1346H85.1688V19.6205C85.1688 26.355 88.6112 30.5183 93.5785 30.5183C96.3491 30.5183 99.2631 29.7185 100.69 24.6284L100.999 24.6732ZM85.2065 18.5591H97.4211C97.6475 13.1998 95.0053 10.6735 91.8271 10.6735C88.1583 10.6735 85.5161 13.7754 85.2065 18.5591Z" fill="black"/>
</svg>
