<svg width="21" height="21" viewBox="0 0 21 21" fill="none" xmlns="http://www.w3.org/2000/svg">
<path fill-rule="evenodd" clip-rule="evenodd" d="M19.476 3.27731C18.7221 3.71081 17.8891 4.02608 16.9988 4.19477C16.2896 3.45945 15.276 3 14.1538 3C12.0029 3 10.2573 4.69556 10.2573 6.78665C10.2573 7.08318 10.2907 7.37154 10.3577 7.64884C7.11807 7.49072 4.24623 5.98501 2.32254 3.6911C1.9867 4.25244 1.79494 4.90366 1.79494 5.59668C1.79494 6.91016 2.48285 8.06937 3.52941 8.74845C2.89122 8.73019 2.28906 8.55814 1.76248 8.27602V8.32264C1.76248 10.1581 3.10632 11.6892 4.89101 12.0358C4.56431 12.1247 4.21934 12.1689 3.86372 12.1689C3.61261 12.1689 3.36758 12.1463 3.13016 12.1021C3.62631 13.6059 5.06502 14.7012 6.77107 14.73C5.43738 15.7465 3.75567 16.352 1.92989 16.352C1.61536 16.352 1.30438 16.3347 1 16.3001C2.72483 17.3728 4.77484 18 6.97552 18C14.1462 18 18.0662 12.2309 18.0662 7.22639C18.0662 7.06155 18.0631 6.89718 18.0565 6.7357C18.818 6.20128 19.4795 5.53516 20 4.77582C19.302 5.07667 18.5501 5.28045 17.7618 5.37176C18.5669 4.90366 19.1848 4.16113 19.476 3.27731Z" fill="black"/>
</svg>
